# xmcd
#
# Track frame offsets:
#	150
#	31181
#	51961
#	71672
#	97799
#	117162
#	133258
#	157845
#	184348
#	214062
#	235821
#	256685
#
# Disc length: 3831 seconds
#
# Revision: 1
# Processed by: cddbd v1.5.2PL0 Copyright (c) Steve Scherf et al.
# Submitted via: audiograbber 1.83.01
#
DISCID=9d0ef50c
DTITLE=Joe Bonamassa - Dust Bowl
DYEAR=2011
DGENRE=Blues
TTITLE0=Slow Train
TTITLE1=Dust Bowl
TTITLE2=Tennessee Plates
TTITLE3=The Meaning Of The Blues
TTITLE4=Black Lung Heartache
TTITLE5=You Better Watch Yourself
TTITLE6=The Last Matador Of Bayonne
TTITLE7=Hearbreaker
TTITLE8=No Love On The Street
TTITLE9=The Whale That Swallowed Jonah
TTITLE10=Sweet Rowena
TTITLE11=Prisoner
EXTD=
EXTT0=
EXTT1=
EXTT2=
EXTT3=
EXTT4=
EXTT5=
EXTT6=
EXTT7=
EXTT8=
EXTT9=
EXTT10=
EXTT11=
PLAYORDER=
